<?xml version="1.0" standalone="no"?>
<!DOCTYPE svg PUBLIC "-//W3C//DTD SVG 20010904//EN"
 "http://www.w3.org/TR/2001/REC-SVG-20010904/DTD/svg10.dtd">
<svg version="1.0" xmlns="http://www.w3.org/2000/svg"
 width="20" height="20" viewBox="0 0 512.000000 512.000000"
 preserveAspectRatio="xMidYMid meet">

<g transform="translate(0.000000,512.000000) scale(0.100000,-0.100000)"
fill="#666567" stroke="none">
<path d="M3320 5107 c-19 -6 -58 -34 -86 -62 -50 -49 -53 -55 -124 -265 -78
-228 -88 -285 -61 -363 46 -134 207 -183 332 -100 57 38 80 83 165 329 65 190
74 225 69 264 -22 148 -159 240 -295 197z"/>
<path d="M1411 4988 c-79 -39 -126 -129 -119 -227 4 -46 22 -93 110 -272 93
-190 111 -219 148 -246 159 -117 360 -18 361 178 1 55 -7 76 -97 264 -54 113
-111 221 -128 241 -63 78 -187 106 -275 62z"/>
<path d="M2405 4019 c-429 -44 -828 -288 -1070 -654 -288 -438 -321 -988 -87
-1462 355 -719 1248 -1017 1965 -657 608 306 930 990 776 1648 -169 718 -848
1201 -1584 1125z m405 -472 c179 -47 337 -137 468 -269 131 -130 221 -286 270
-468 22 -83 26 -115 26 -250 0 -135 -4 -167 -26 -250 -49 -182 -139 -338 -270
-468 -130 -131 -286 -221 -468 -270 -83 -22 -115 -26 -250 -26 -135 0 -167 4
-250 26 -182 49 -338 139 -468 270 -187 186 -288 418 -299 683 -15 365 171
708 492 906 98 61 203 102 326 128 130 29 314 24 449 -12z"/>
<path d="M4670 3816 c-30 -13 -133 -62 -227 -110 -146 -72 -178 -93 -202 -127
-113 -155 -12 -364 174 -364 56 0 75 7 270 102 116 56 225 114 243 128 64 51
99 170 72 249 -16 50 -66 105 -115 127 -57 26 -146 24 -215 -5z"/>
<path d="M195 3611 c-50 -13 -90 -38 -128 -80 -83 -92 -69 -226 33 -313 32
-28 85 -51 253 -108 256 -88 299 -94 377 -53 63 33 114 99 125 162 11 64 -18
144 -68 195 -39 39 -61 48 -267 119 -235 81 -276 91 -325 78z"/>
<path d="M4414 2064 c-47 -17 -106 -69 -131 -117 -26 -49 -23 -133 8 -192 41
-81 79 -102 340 -190 l235 -79 58 13 c48 11 68 22 111 64 39 38 57 64 65 97
23 85 -9 185 -74 235 -43 33 -484 185 -534 184 -20 0 -56 -7 -78 -15z"/>
<path d="M635 1896 c-68 -23 -426 -203 -452 -228 -62 -58 -89 -173 -59 -252
20 -53 78 -109 131 -126 20 -7 65 -10 100 -8 56 3 87 16 278 110 189 93 220
112 246 148 61 84 63 201 5 277 -55 72 -166 107 -249 79z"/>
<path d="M3357 917 c-90 -28 -148 -113 -148 -218 -1 -55 7 -76 97 -264 54
-113 111 -221 128 -241 39 -48 117 -84 181 -84 134 1 224 106 213 250 -3 45
-23 94 -110 270 -115 235 -133 259 -226 286 -54 17 -84 17 -135 1z"/>
<path d="M1818 839 c-56 -13 -116 -57 -144 -104 -13 -23 -58 -141 -100 -261
-65 -190 -74 -225 -69 -264 9 -60 36 -109 84 -153 90 -81 203 -75 297 18 50
49 53 55 124 265 78 228 88 285 61 363 -34 101 -148 162 -253 136z"/>
</g>
</svg>
