<?xml version="1.0" standalone="no"?>
<!DOCTYPE svg PUBLIC "-//W3C//DTD SVG 20010904//EN"
 "http://www.w3.org/TR/2001/REC-SVG-20010904/DTD/svg10.dtd">
<svg version="1.0" xmlns="http://www.w3.org/2000/svg"
 width="20" height="20" viewBox="0 0 512.000000 512.000000"
 preserveAspectRatio="xMidYMid meet">

<g transform="translate(0.000000,512.000000) scale(0.100000,-0.100000)"
fill="#666567" stroke="none">
<path d="M2350 5099 c-948 -90 -1770 -684 -2143 -1549 -58 -135 -111 -287
-136 -392 -153 -652 -54 -1311 281 -1872 260 -435 633 -780 1084 -1002 594
-292 1256 -352 1882 -169 414 121 811 355 1113 655 316 314 523 661 653 1093
43 142 44 177 9 248 -38 74 -96 110 -180 110 -33 0 -76 -6 -96 -15 -20 -8 -82
-58 -137 -110 -116 -110 -181 -161 -301 -239 -700 -451 -1604 -413 -2139 90
-546 513 -530 1400 36 2034 265 296 575 479 1031 609 119 34 175 101 175 211
0 119 -64 182 -227 224 -286 74 -622 101 -905 74z m80 -423 c0 -3 -39 -33 -86
-67 -359 -259 -622 -594 -779 -989 -50 -127 -111 -370 -131 -527 -28 -218 -9
-479 51 -693 147 -523 550 -950 1090 -1155 129 -49 308 -96 445 -117 112 -17
507 -17 620 0 206 32 486 115 674 201 38 17 71 31 73 31 10 0 -68 -102 -148
-194 -304 -353 -766 -611 -1244 -696 -644 -115 -1305 60 -1806 478 -503 421
-795 1095 -749 1733 51 707 430 1330 1022 1680 280 166 551 264 839 303 125
17 129 17 129 12z"/>
</g>
</svg>
