<svg width="22" height="22" viewBox="0 0 22 22" fill="none" xmlns="http://www.w3.org/2000/svg">
<rect x="0.5" y="0.5" width="20.9232" height="20.9232" rx="7.5" fill="#121214" stroke="#ACACAC"/>
<path d="M6.57672 14.6318H15.3463C15.7418 14.6318 16.0611 14.9511 16.0611 15.3467C16.0611 15.7423 15.7418 16.0615 15.3463 16.0615H6.57672C6.18128 16.0614 5.86188 15.7422 5.86188 15.3467C5.86191 14.9512 6.1813 14.632 6.57672 14.6318ZM6.94196 5.8623H9.13434C9.52982 5.8623 9.84999 6.18171 9.85016 6.57715C9.85016 6.97273 9.52992 7.29297 9.13434 7.29297C8.92409 7.29318 8.75348 7.46353 8.75348 7.67383V10.2314C8.75355 11.4503 9.74264 12.4394 10.9615 12.4395C12.1804 12.4395 13.1694 11.4504 13.1695 10.2314V7.67383C13.1695 7.46341 12.999 7.29299 12.7886 7.29297C12.3931 7.29297 12.0738 6.97273 12.0738 6.57715C12.074 6.18171 12.3932 5.8623 12.7886 5.8623H14.981C15.3765 5.86236 15.6957 6.18174 15.6959 6.57715C15.6959 6.9727 15.3766 7.29292 14.981 7.29297C14.7706 7.29297 14.6002 7.4634 14.6002 7.67383V10.2314C14.6001 12.2415 12.9716 13.8691 10.9615 13.8691C8.95148 13.869 7.32386 12.2415 7.32379 10.2314V7.67383C7.32379 7.4634 7.15238 7.29297 6.94196 7.29297C6.54659 7.29272 6.22711 6.97258 6.22711 6.57715C6.22728 6.18186 6.54669 5.86255 6.94196 5.8623Z" fill="#ACACAC" stroke="#ACACAC" stroke-width="0.03125"/>
</svg>
