<svg width="16" height="16" viewBox="0 0 16 16" fill="none" xmlns="http://www.w3.org/2000/svg">
<g opacity="0.25">
<path d="M14.6666 8.66602V9.99935C14.6666 13.3327 13.3333 14.666 9.99998 14.666H5.99998C2.66665 14.666 1.33331 13.3327 1.33331 9.99935V8.98602" stroke="#A0A0A3" stroke-linecap="round" stroke-linejoin="round"/>
<path d="M7.33331 1.33398H5.99998C2.66665 1.33398 1.33331 2.66732 1.33331 6.00065" stroke="#A0A0A3" stroke-linecap="round" stroke-linejoin="round"/>
<path d="M13.2866 6.00684L13.9866 5.30684C14.8933 4.40017 15.32 3.34684 13.9866 2.0135C12.6533 0.680168 11.6 1.10684 10.6933 2.0135L5.43998 7.26684C5.23998 7.46684 5.03998 7.86017 4.99998 8.14684L4.71331 10.1535C4.60665 10.8802 5.11998 11.3868 5.84665 11.2868L7.85331 11.0002C8.13331 10.9602 8.52665 10.7602 8.73331 10.5602L10.8533 8.44017L11.34 7.9535" stroke="#A0A0A3" stroke-miterlimit="10" stroke-linecap="round" stroke-linejoin="round"/>
<path d="M9.94 2.76758C10.3867 4.36091 11.6333 5.60758 13.2333 6.06091" stroke="#A0A0A3" stroke-miterlimit="10" stroke-linecap="round" stroke-linejoin="round"/>
</g>
</svg>
