<svg width="128" height="128" viewBox="0 0 128 128" fill="none" xmlns="http://www.w3.org/2000/svg">
<g clip-path="url(#clip0_1127_1149)">
<path fill-rule="evenodd" clip-rule="evenodd" d="M-0.128052 -0.12793C42.5387 -0.12793 85.2052 -0.12793 127.872 -0.12793C127.872 42.5388 127.872 85.2053 127.872 127.872C85.2052 127.872 42.5387 127.872 -0.128052 127.872C-0.128052 85.2053 -0.128052 42.5388 -0.128052 -0.12793Z" fill="#2BC66F"/>
<path fill-rule="evenodd" clip-rule="evenodd" d="M36.224 32.8959C36.224 32.8106 36.224 32.7251 36.224 32.6399C40.4908 32.6399 44.7572 32.6399 49.024 32.6399C49.024 43.5626 49.024 54.4851 49.024 65.4079C48.7683 54.6142 48.683 43.7767 48.768 32.8959C44.5868 32.8959 40.4052 32.8959 36.224 32.8959Z" fill="#23804C"/>
<path fill-rule="evenodd" clip-rule="evenodd" d="M16.768 32.896C23.168 32.896 29.568 32.896 35.968 32.896C35.883 43.8623 35.9682 54.7848 36.224 65.664C36.4236 69.9538 38.5569 72.727 42.624 73.984C46.8897 74.112 51.1564 74.1548 55.424 74.112C61.142 74.1548 66.8592 74.112 72.576 73.984C76.1971 73.0079 78.2878 70.6611 78.848 66.944C78.976 62.422 79.0187 57.8995 78.976 53.376C71.808 53.376 64.64 53.376 57.472 53.376C57.472 46.5492 57.472 39.7227 57.472 32.896C71.04 32.896 84.608 32.896 98.176 32.896C98.176 43.8187 98.176 54.7412 98.176 65.664C98.0244 73.2774 95.6779 80.1042 91.136 86.144C86.2144 91.5704 80.1131 94.4719 72.832 94.848C61.653 94.8908 50.4742 94.848 39.296 94.72C29.902 93.1763 23.374 88.0136 19.712 79.232C18.1697 75.1951 17.231 71.0139 16.896 66.688C16.768 55.4243 16.7253 44.1603 16.768 32.896Z" fill="#171817"/>
<path fill-rule="evenodd" clip-rule="evenodd" d="M16.7679 32.8961C23.2092 32.6406 29.6947 32.5553 36.2239 32.6401C36.2239 32.7253 36.2239 32.8108 36.2239 32.8961C36.2239 43.8188 36.2239 54.7413 36.2239 65.6641C35.9682 54.7848 35.883 43.8623 35.9679 32.8961C29.5679 32.8961 23.1679 32.8961 16.7679 32.8961Z" fill="#1A3225"/>
<path fill-rule="evenodd" clip-rule="evenodd" d="M36.224 32.896C40.4052 32.896 44.5868 32.896 48.768 32.896C48.683 43.7768 48.7683 54.6143 49.024 65.408C49.225 69.783 51.3585 72.6843 55.424 74.112C51.1565 74.1548 46.8897 74.112 42.624 73.984C38.5569 72.727 36.4237 69.9538 36.224 65.664C36.224 54.7412 36.224 43.8187 36.224 32.896Z" fill="#1F5737"/>
<path fill-rule="evenodd" clip-rule="evenodd" d="M57.472 32.896C71.082 32.6402 84.7353 32.555 98.432 32.64C98.432 32.7252 98.432 32.8107 98.432 32.896C98.517 43.8622 98.4318 54.7847 98.176 65.664C98.176 54.7412 98.176 43.8187 98.176 32.896C84.608 32.896 71.04 32.896 57.472 32.896Z" fill="#192F23"/>
<path fill-rule="evenodd" clip-rule="evenodd" d="M98.432 32.896C102.613 32.896 106.795 32.896 110.976 32.896C110.976 43.904 110.976 54.912 110.976 65.92C110.783 73.4426 108.437 80.1841 103.936 86.144C99.3278 91.2855 93.5678 94.144 86.656 94.72C82.0488 94.848 77.4408 94.8908 72.832 94.848C80.1132 94.4719 86.2144 91.5704 91.136 86.144C95.678 80.1042 98.0245 73.2774 98.176 65.664C98.4318 54.7848 98.517 43.8623 98.432 32.896Z" fill="#1F5636"/>
<path fill-rule="evenodd" clip-rule="evenodd" d="M98.4319 32.8959C98.4319 32.8106 98.4319 32.7251 98.4319 32.6399C102.699 32.6399 106.965 32.6399 111.232 32.6399C111.317 43.7767 111.232 54.8702 110.976 65.9199C110.976 54.9119 110.976 43.9039 110.976 32.8959C106.795 32.8959 102.613 32.8959 98.4319 32.8959Z" fill="#237E4B"/>
<path fill-rule="evenodd" clip-rule="evenodd" d="M70.2719 38.272C70.2719 40.2347 70.2719 42.1972 70.2719 44.16C67.6267 44.16 64.9812 44.16 62.3359 44.16C62.3359 42.1972 62.3359 40.2347 62.3359 38.272C64.9812 38.272 67.6267 38.272 70.2719 38.272Z" fill="#2CC76F"/>
<path fill-rule="evenodd" clip-rule="evenodd" d="M70.272 38.272C72.2347 38.272 74.1972 38.272 76.16 38.272C76.16 40.2347 76.16 42.1972 76.16 44.16C74.1972 44.16 72.2347 44.16 70.272 44.16C70.272 42.1972 70.272 40.2347 70.272 38.272Z" fill="#1F5736"/>
</g>
<defs>
<clipPath id="clip0_1127_1149">
<rect width="128" height="128" fill="white"/>
</clipPath>
</defs>
</svg>
